HIERARCHY
ROOT root     
{
	OFFSET 0.0000 0.0000 0.0000
	CHANNELS 6 Xposition Yposition Zposition Zrotation Yrotation Xrotation
	JOINT pelvis   
	{
		OFFSET 0.0000 0.0000 0.0000
		CHANNELS 3 Zrotation Yrotation Xrotation
		JOINT thorax   
		{
			OFFSET 0.0000 23.0750 -5.0000
			CHANNELS 3 Zrotation Yrotation Xrotation
			JOINT rclavicle
			{
				OFFSET 0.0000 28.0009 0.0000
				CHANNELS 3 Zrotation Yrotation Xrotation
				JOINT rhumerus 
				{
					OFFSET -18.5725 5.5939 0.0000
					CHANNELS 3 Zrotation Yrotation Xrotation
					JOINT rradius  
					{
						OFFSET -24.8459 0.0000 0.0000
						CHANNELS 3 Zrotation Yrotation Xrotation
						JOINT rhand    
						{
							OFFSET -24.5477 0.0000 0.0000
							CHANNELS 3 Zrotation Yrotation Xrotation
							End Site
							{
								OFFSET -8.1826 0.0000 0.0000
							}
						}
					}
				}
			}
			JOINT lclavicle
			{
				OFFSET 0.0000 28.0009 0.0000
				CHANNELS 3 Zrotation Yrotation Xrotation
				JOINT lhumerus 
				{
					OFFSET 18.5725 5.5939 0.0000
					CHANNELS 3 Zrotation Yrotation Xrotation
					JOINT lradius  
					{
						OFFSET 24.8459 0.0000 0.0000
						CHANNELS 3 Zrotation Yrotation Xrotation
						JOINT lhand    
						{
							OFFSET 24.5477 0.0000 0.0000
							CHANNELS 3 Zrotation Yrotation Xrotation
							End Site
							{
								OFFSET 8.1826 0.0000 0.0000
							}
						}
					}
				}
			}
			JOINT head     
			{
				OFFSET 0.0000 35.2030 0.0000
				CHANNELS 3 Zrotation Yrotation Xrotation
				End Site
				{
					OFFSET 0.0000 11.7343 0.0000
				}
			}
		}
		JOINT rfemur   
		{
			OFFSET -8.2817 0.0000 0.0000
			CHANNELS 3 Zrotation Yrotation Xrotation
			JOINT rtibia   
			{
				OFFSET 0.0000 -43.3627 0.0000
				CHANNELS 3 Zrotation Yrotation Xrotation
				JOINT rfoot    
				{
					OFFSET 0.0000 -38.2947 0.0000
					CHANNELS 3 Zrotation Yrotation Xrotation
					JOINT rtoes    
					{
						OFFSET 0.0000 0.0000 16.6054
						CHANNELS 3 Zrotation Yrotation Xrotation
						End Site
						{
							OFFSET 0.0000 0.0000 5.5351
						}
					}
				}
			}
		}
		JOINT lfemur   
		{
			OFFSET 8.2817 0.0000 0.0000
			CHANNELS 3 Zrotation Yrotation Xrotation
			JOINT ltibia   
			{
				OFFSET 0.0000 -43.3627 0.0000
				CHANNELS 3 Zrotation Yrotation Xrotation
				JOINT lfoot    
				{
					OFFSET 0.0000 -38.2947 0.0000
					CHANNELS 3 Zrotation Yrotation Xrotation
					JOINT ltoes    
					{
						OFFSET 0.0000 0.0000 16.6054
						CHANNELS 3 Zrotation Yrotation Xrotation
						End Site
						{
							OFFSET 0.0000 0.0000 5.5351
						}
					}
				}
			}
		}
	}
}
MOTION
Frames: 9
Frame Time: .0333333
19.988 86.866 -14.282 -169.735 16.4586 -155.809 0 -0 0 15.8697 -17.9042 -11.3609 25.2696 -13.3059 -0.00017211 49.1598 -19.3434 -16.143 0 59.9306 0 2.53696 0.041 0.000900034 -19.6031 8.27681 -2.42855e-05 -58.9395 -28.9721 41.3254 -180 -83.2258 180 5.60418 -2.19125 -0.107304 5.65333 28.6275 -8.29259 2.5257 -3.61272 -30.9405 -0 -0 10.2127 1.41527e-05 1.78384 14.4939 0.446599 2.92552e-06 -63.4381 -3.4014 -24.8935 3.8016 -0 -0 16.2508 2.38695e-06 -2.08281 23.8132 -0.841307 -3.37518e-06 -11.5225 
20.766 86.624 -15.353 -169.828 15.8753 -156.142 0 -0 0 16.006 -17.8872 -11.5733 25.376 -13.4459 0.000105555 49.4567 -19.4812 -16.0304 -4.3399e-07 60.3632 -7.46227e-07 2.21865 0.391201 0.0075998 -19.414 8.37825 2.344e-05 -58.281 -28.3163 40.8116 -180 -81.3201 180 5.57472 -2.11081 -0.102798 5.38557 27.9263 -8.19256 2.9857 -3.49477 -30.6641 -0 -0 9.70968 -3.20358e-06 2.91246 14.9303 0.750997 1.34382e-06 -63.1518 -3.3908 -23.2984 4.53798 -0 -0 16.7081 2.03296e-06 -2.20739 24.8131 -0.926808 2.3964e-06 -14.1519 
21.539 86.344 -16.428 -169.895 15.3819 -156.459 0 -0 0 16.165 -17.8255 -11.7846 25.4912 -13.5968 -0.000170325 49.6807 -19.501 -15.8041 7.55092e-07 60.8197 4.43181e-07 1.90633 0.731203 0.0122003 -19.3329 8.49913 -5.20546e-05 -57.3558 -27.5891 40.1366 180 -79.3442 180 5.53655 -2.05623 -0.0994028 4.91983 27.2804 -8.14451 3.33699 -3.15256 -30.4418 -0 -0 9.65405 -7.10224e-06 3.58996 15.1467 0.939198 -1.32284e-06 -62.1952 -3.29869 -21.4601 5.15872 -0 -0 17.3221 -5.59988e-06 -2.4286 25.8518 -1.0595 4.1261e-06 -17.0031 
22.305 86.034 -17.5 -169.931 14.9715 -156.744 0 -0 0 16.3719 -17.7187 -12.008 25.6168 -13.7483 0.000109458 49.8224 -19.3913 -15.4707 0 61.2763 0 1.59789 1.067 0.0148999 -19.3791 8.64112 1.86543e-05 -56.1704 -26.7905 39.3002 -180 -77.3465 180 5.46009 -2.04062 -0.0973002 4.25729 26.6979 -8.15164 3.56611 -2.54555 -30.3011 -0 -0 10.0693 1.202e-05 3.75351 15.07 0.977189 -6.58386e-06 -60.6556 -3.09739 -19.3869 5.63108 -0 -0 18.1166 1.43037e-06 -2.75049 26.9412 -1.24702 -5.41262e-06 -20.113 
23.061 85.7 -18.562 -169.931 14.6315 -156.985 0 -0 0 16.6379 -17.5691 -12.2533 25.7636 -13.8943 8.3368e-05 49.8763 -19.1489 -15.0411 -4.61858e-07 61.7071 -7.73146e-07 1.2873 1.40426 0.0157997 -19.5633 8.80629 -3.58283e-05 -54.7436 -25.9283 38.3011 180 -75.3597 -180 5.31802 -2.07222 -0.0962012 3.40867 26.1866 -8.21515 3.67591 -1.67192 -30.2677 -0 -0 10.9772 -1.32657e-06 3.40557 14.6315 0.861193 -1.60302e-06 -58.5616 -2.77317 -17.1039 5.92896 -0 -0 19.1163 1.75261e-05 -3.16078 28.0555 -1.48783 -1.13221e-05 -23.2059 
23.804 85.351 -19.611 -169.901 14.3459 -157.177 0 -0 0 16.9597 -17.3833 -12.5215 25.9386 -14.0272 -0.00021356 49.8372 -18.7664 -14.5242 7.81227e-07 62.0848 4.70191e-07 0.965593 1.74879 0.0146998 -19.8793 8.99237 -4.97156e-05 -53.1122 -24.998 37.1486 180 -73.4278 -180 5.08865 -2.15336 -0.0957014 2.3943 25.7433 -8.33697 3.68588 -0.574686 -30.3611 -0 -0 12.3838 -2.74368e-06 2.61774 13.7879 0.624302 -1.83346e-09 -56.0129 -2.33354 -14.6642 6.0418 -0 -0 20.3437 1.15064e-05 -3.61487 29.1712 -1.76378 8.37046e-06 -26.1242 
24.53 84.994 -20.646 -169.857 14.0983 -157.328 0 -0 0 17.3178 -17.1722 -12.8107 26.1476 -14.1375 -0.000131382 49.7202 -18.2439 -13.9446 0 62.3761 0 0.629595 2.10766 0.0115996 -20.3011 9.181 2.63127e-05 -51.3301 -23.9772 35.8537 -180 -71.5999 180 4.75815 -2.27947 -0.0947 1.24544 25.3611 -8.51527 3.62143 0.65818 -30.5906 -0 -0 14.2668 4.65818e-06 1.51909 12.5303 0.329604 6.33806e-07 -53.1253 -1.81388 -12.16 5.97354 -0 -0 21.8063 -2.12254e-05 -4.03648 30.2487 -2.03589 1.02004e-05 -28.6228 
25.238 84.635 -21.669 -169.804 13.8729 -157.46 0 -0 0 17.6918 -16.9564 -13.0849 26.4177 -14.2235 -4.5366e-05 49.5071 -17.5733 -13.2865 0 62.5792 0 0.245394 2.46494 0.00529993 -20.8148 9.40771 -3.58676e-06 -49.4495 -22.9203 34.4619 180 -69.9482 -180 4.33244 -2.44016 -0.0922969 -0.0102669 25.0335 -8.75933 3.52708 1.93251 -30.9147 -0 -0 16.5505 -2.11491e-07 0.252003 10.8979 0.0477004 1.86223e-07 -50.0155 -1.23991 -9.65981 5.75138 -0 -0 23.5033 5.23379e-05 -4.33998 31.2851 -2.25696 2.05463e-06 -30.8236 
25.919 84.281 -22.681 -169.775 13.6507 -157.587 0 -0 0 18.0378 -16.75 -13.3394 26.7391 -14.2769 -0.000190029 49.2424 -16.758 -12.5968 0 62.6502 0 -0.173298 2.82874 -0.00430002 -21.3672 9.62133 2.68488e-06 -47.5415 -21.7607 32.9845 180 -68.4911 180 3.82067 -2.62165 -0.0875005 -1.33117 24.7416 -9.06151 3.42002 3.13254 -31.2948 -0 -0 19.1163 6.47953e-07 -1.03899 8.9781 -0.162197 -1.14133e-07 -46.9285 -0.679399 -7.29665 5.39053 -0 -0 25.4181 3.84514e-05 -4.42136 32.22 -2.36075 -1.00775e-05 -32.4414 
